<?xml version="1.0" encoding="utf-8"?>
<!-- Generator: Adobe Illustrator 26.5.1, SVG Export Plug-In . SVG Version: 6.00 Build 0)  -->
<svg version="1.1" id="Layer_1" xmlns="http://www.w3.org/2000/svg" xmlns:xlink="http://www.w3.org/1999/xlink" x="0px" y="0px"
	 viewBox="0 0 615.2 244.4" style="enable-background:new 0 0 615.2 244.4;" xml:space="preserve">
<style type="text/css">
	.st0{fill:#E01E5A;}
	.st1{fill:#36C5F0;}
	.st2{fill:#2EB67D;}
	.st3{fill:#ECB22E;}
</style>
<path d="M218.2,158.3l6.2-14.4c6.7,5,15.6,7.6,24.4,7.6c6.5,0,10.6-2.5,10.6-6.3c-0.1-10.6-38.9-2.3-39.2-28.9
	c-0.1-13.5,11.9-23.9,28.9-23.9c10.1,0,20.2,2.5,27.4,8.2l-5.8,14.7c-6.6-4.2-14.8-7.2-22.6-7.2c-5.3,0-8.8,2.5-8.8,5.7
	c0.1,10.4,39.2,4.7,39.6,30.1c0,13.8-11.7,23.5-28.5,23.5C238.1,167.4,226.8,164.5,218.2,158.3"/>
<path d="M456.1,138.7c-3.1,5.4-8.9,9.1-15.6,9.1c-9.9,0-17.9-8-17.9-17.9s8-17.9,17.9-17.9c6.7,0,12.5,3.7,15.6,9.1l17.1-9.5
	c-6.4-11.4-18.7-19.2-32.7-19.2c-20.7,0-37.5,16.8-37.5,37.5s16.8,37.5,37.5,37.5c14.1,0,26.3-7.7,32.7-19.2L456.1,138.7z"/>
<path d="M287.5,61.3h21.4V166h-21.4V61.3z"/>
<path d="M481.6,61.3V166H503v-31.4l25.4,31.4h27.4l-32.3-37.3l29.9-34.8h-26.2L503,122.8V61.3L481.6,61.3z"/>
<path d="M372.5,138.9c-3.1,5.1-9.5,8.9-16.7,8.9c-9.9,0-17.9-8-17.9-17.9s8-17.9,17.9-17.9c7.2,0,13.6,4,16.7,9.2V138.9z
	 M372.5,93.9v8.5c-3.5-5.9-12.2-10-21.3-10c-18.8,0-33.6,16.6-33.6,37.4s14.8,37.6,33.6,37.6c9.1,0,17.8-4.1,21.3-10v8.5h21.4v-72
	H372.5z"/>
<path class="st0" d="M85.9,138.8c0,7.3-5.9,13.2-13.2,13.2s-13.2-5.9-13.2-13.2s5.9-13.2,13.2-13.2h13.2V138.8z"/>
<path class="st0" d="M92.5,138.8c0-7.3,5.9-13.2,13.2-13.2s13.2,5.9,13.2,13.2v33c0,7.3-5.9,13.2-13.2,13.2s-13.2-5.9-13.2-13.2
	V138.8z"/>
<path class="st1" d="M105.7,85.8c-7.3,0-13.2-5.9-13.2-13.2s5.9-13.2,13.2-13.2s13.2,5.9,13.2,13.2v13.2H105.7z"/>
<path class="st1" d="M105.7,92.5c7.3,0,13.2,5.9,13.2,13.2s-5.9,13.2-13.2,13.2H72.6c-7.3,0-13.2-5.9-13.2-13.2s5.9-13.2,13.2-13.2
	H105.7z"/>
<path class="st2" d="M158.6,105.7c0-7.3,5.9-13.2,13.2-13.2s13.2,5.9,13.2,13.2s-5.9,13.2-13.2,13.2h-13.2V105.7z"/>
<path class="st2" d="M152,105.7c0,7.3-5.9,13.2-13.2,13.2s-13.2-5.9-13.2-13.2V72.6c0-7.3,5.9-13.2,13.2-13.2S152,65.3,152,72.6
	V105.7z"/>
<g>
	<path class="st3" d="M138.8,158.6c7.3,0,13.2,5.9,13.2,13.2s-5.9,13.2-13.2,13.2s-13.2-5.9-13.2-13.2v-13.2H138.8z"/>
	<path class="st3" d="M138.8,152c-7.3,0-13.2-5.9-13.2-13.2s5.9-13.2,13.2-13.2h33.1c7.3,0,13.2,5.9,13.2,13.2s-5.9,13.2-13.2,13.2
		H138.8z"/>
</g>
</svg>
