<svg xmlns="http://www.w3.org/2000/svg" width="162" height="32" viewBox="0 0 162 32" fill="none">
  <g clip-path="url(#clip0_371_3075)">
    <path d="M37.1006 7.88H45.3868C51.3832 7.88 52.9021 11.3655 52.9021 14.2063C52.9021 17.0472 51.3491 20.5326 45.3868 20.5326H40.2745V30.4975H37.1006V7.88ZM40.2745 17.8448H44.4572C46.9737 17.8448 49.4901 17.2766 49.4901 14.2063C49.4901 11.1361 46.9737 10.5678 44.4572 10.5678H40.2745V17.8448Z" fill="black"/>
    <path d="M57.0511 7.77112C58.2489 7.77188 59.2233 8.70089 59.2372 9.85533C59.2512 11.0098 58.2995 11.9605 57.1021 11.9881C55.9047 12.0158 54.9068 11.1101 54.8634 9.9564C54.8451 9.38488 55.0671 8.83037 55.479 8.41887C55.8909 8.00739 56.4578 7.77379 57.0511 7.77112ZM55.5889 15.3541H58.536V30.4981H55.5889V15.3541Z" fill="black"/>
    <path d="M61.9463 15.3545H64.9276V17.6926H64.9955C66.0349 15.9055 68.0429 14.8486 70.1645 14.972C73.2137 14.972 75.8322 16.7311 75.8322 20.7519V30.4981H72.8849V21.5604C72.8849 18.7088 71.196 17.6598 69.303 17.6598C66.8205 17.6598 64.9276 19.1895 64.9276 22.7077V30.4981H61.9463V15.3545Z" fill="black"/>
    <path d="M81.2971 23.9858C81.2971 26.6302 83.8476 28.3567 86.602 28.3567C88.33 28.3082 89.9302 27.468 90.9096 26.0948L93.1764 27.7556C91.5305 29.8489 88.9151 31.0194 86.194 30.8808C81.2178 30.8808 78.1119 27.4388 78.1119 22.9259C78.024 20.82 78.8415 18.7723 80.3714 17.2665C81.9013 15.7607 84.008 14.9302 86.194 14.971C91.7256 14.971 93.8453 19.0578 93.8453 22.9587V23.9858H81.2971ZM90.7282 21.6803C90.6602 19.1561 89.1979 17.3094 86.194 17.3094C83.6251 17.2925 81.4878 19.209 81.3198 21.6803H90.7282Z" fill="black"/>
    <path d="M107.381 19.3871C106.41 18.2812 104.972 17.6585 103.469 17.6935C100.228 17.6935 98.561 20.2174 98.561 23.0583C98.4797 24.4021 98.9795 25.7183 99.9418 26.6935C100.904 27.6688 102.243 28.2159 103.639 28.2046C105.116 28.2522 106.528 27.6242 107.448 26.5109L109.568 28.5323C108.026 30.1061 105.85 30.9556 103.605 30.8596C101.4 30.9666 99.25 30.1711 97.6846 28.6689C96.1201 27.1666 95.2857 25.0975 95.3872 22.9709C95.2876 20.836 96.1192 18.7584 97.68 17.2411C99.2418 15.7238 101.39 14.9053 103.605 14.9838C105.875 14.9282 108.065 15.7969 109.636 17.3766L107.381 19.3871Z" fill="black"/>
    <path d="M118.386 14.9723C122.925 15.0444 126.552 18.6368 126.502 23.0123C126.453 27.3878 122.745 30.9029 118.206 30.8793C113.666 30.8556 109.999 27.302 109.998 22.9263C109.998 20.7939 110.886 18.7506 112.464 17.2551C114.04 15.7596 116.175 14.9371 118.386 14.9723ZM118.386 28.2036C121.56 28.2036 123.555 26.0184 123.555 22.9263C123.555 19.8343 121.56 17.66 118.386 17.66C115.212 17.66 113.207 19.8452 113.207 22.9263C113.207 26.0075 115.202 28.2036 118.386 28.2036Z" fill="black"/>
    <path d="M129.155 15.3539H132.136V17.692C133.179 15.9032 135.191 14.8464 137.317 14.9714C140.366 14.9714 142.985 16.7306 142.985 20.7514V30.4976H140.003V21.5599C140.003 18.7082 138.314 17.6593 136.432 17.6593C133.938 17.6593 132.057 19.1889 132.057 22.7072V30.4976H129.155V15.3539Z" fill="black"/>
    <path d="M148.538 23.9858C148.538 26.63 151.089 28.3564 153.843 28.3564C155.57 28.3027 157.167 27.4637 158.15 26.0946L160.418 27.7554C158.77 29.8312 156.165 30.9885 153.458 30.8476C148.493 30.8476 145.376 27.4058 145.376 22.8932C145.287 20.7815 146.109 18.7286 147.647 17.2218C149.185 15.7151 151.3 14.8886 153.492 14.9387C159.035 14.9387 161.154 19.0251 161.154 22.9259V23.953L148.538 23.9858ZM157.947 21.6803C157.878 19.1563 156.428 17.3097 153.412 17.3097C150.841 17.2874 148.7 19.2067 148.538 21.6803H157.947Z" fill="black"/>
    <path d="M13.2051 31.9843C14.2255 31.9843 15.0528 31.1869 15.0528 30.2034C15.0528 29.2197 14.2255 28.4224 13.2051 28.4224C12.1846 28.4224 11.3574 29.2197 11.3574 30.2034C11.3574 31.1869 12.1846 31.9843 13.2051 31.9843Z" fill="black"/>
    <path d="M17.5254 6.59214L18.3188 2.34131" stroke="black" stroke-width="2.00803" stroke-linecap="square"/>
    <path d="M21.1747 5.08308L18.4088 1.82751L14.6455 3.94691" stroke="black" stroke-width="2.00803" stroke-linecap="square" stroke-linejoin="round"/>
    <path d="M14.2139 24.7291L14.9847 20.479" stroke="black" stroke-width="2.00803" stroke-linecap="square"/>
    <path d="M17.8648 23.209L15.0762 19.964L11.3242 22.0945" stroke="black" stroke-width="2.00803" stroke-linecap="square" stroke-linejoin="round"/>
    <path d="M15.8135 15.9653L16.5843 11.7148" stroke="black" stroke-width="2.00803" stroke-linecap="square"/>
    <path d="M19.4617 14.4477L16.6846 11.2133L12.9326 13.3331" stroke="black" stroke-width="2.00803" stroke-linecap="square" stroke-linejoin="round"/>
    <path d="M7.96838 24.3569L4.5791 26.63" stroke="black" stroke-width="1.90593" stroke-linecap="square"/>
    <path d="M8.17228 28.0405L4.1709 26.9042L4.46562 22.8945" stroke="black" stroke-width="1.90593" stroke-linecap="square" stroke-linejoin="round"/>
    <path d="M20.2793 26.4884L22.637 29.7662" stroke="black" stroke-width="1.90593" stroke-linecap="square"/>
    <path d="M18.7607 29.8753L22.9209 30.1485L24.0997 26.3136" stroke="black" stroke-width="1.90593" stroke-linecap="square" stroke-linejoin="round"/>
    <path d="M24.1445 19.8346L28.2933 20.5565" stroke="black" stroke-width="1.95131" stroke-linecap="square"/>
    <path d="M25.5723 23.3418L28.7915 20.6432L26.7625 17.0487" stroke="black" stroke-width="1.95131" stroke-linecap="square" stroke-linejoin="round"/>
    <path d="M22.9307 11.9008L26.626 9.93445" stroke="black" stroke-width="1.95131" stroke-linecap="square"/>
    <path d="M23.1348 8.13208L27.0682 9.70543L26.3313 13.7372" stroke="black" stroke-width="1.95131" stroke-linecap="square" stroke-linejoin="round"/>
    <path d="M6.63078 16.8626L2.4707 16.1626" stroke="black" stroke-width="1.95131" stroke-linecap="square"/>
    <path d="M4.03471 19.6804L1.97168 16.0856L5.15691 13.376" stroke="black" stroke-width="1.95131" stroke-linecap="square" stroke-linejoin="round"/>
    <path d="M10.5751 9.79345L7.79785 6.73401" stroke="black" stroke-width="1.95131" stroke-linecap="square"/>
    <path d="M11.7216 6.19739L7.47079 6.37223L6.72266 10.4044" stroke="black" stroke-width="1.95131" stroke-linecap="square" stroke-linejoin="round"/>
  </g>
  <defs>
    <clipPath id="clip0_371_3075">
      <rect width="160.838" height="31.9848" fill="white" transform="translate(0.727539)"/>
    </clipPath>
  </defs>
</svg>